<svg width="224" height="82" viewBox="0 0 224 82" fill="none" xmlns="http://www.w3.org/2000/svg">
    <path opacity="0.2" d="M37.4162 0H37.4161C16.7518 0 0 16.7518 0 37.4161V37.4162C0 58.0805 16.7518 74.8323 37.4161 74.8323H37.4162C58.0805 74.8323 74.8323 58.0805 74.8323 37.4162V37.4161C74.8323 16.7518 58.0805 0 37.4162 0Z" fill="#7BAACF"/>
    <path d="M82.6265 56.1238C82.6265 42.3476 71.4587 31.1797 57.6824 31.1797C43.9062 31.1797 32.7383 42.3476 32.7383 56.1238C32.7383 69.9 43.9062 81.0679 57.6824 81.0679C71.4587 81.0679 82.6265 69.9 82.6265 56.1238Z" fill="#7BAACF"/>
    <path d="M88.776 37.133C87.8893 37.133 87.0913 36.981 86.382 36.677C85.6727 36.3603 85.1153 35.917 84.71 35.347C84.3047 34.777 84.102 34.112 84.102 33.352H86.42C86.4707 33.922 86.6923 34.3907 87.085 34.758C87.4903 35.1253 88.054 35.309 88.776 35.309C89.5233 35.309 90.106 35.1317 90.524 34.777C90.942 34.4097 91.151 33.941 91.151 33.371C91.151 32.9277 91.018 32.5667 90.752 32.288C90.4987 32.0093 90.1757 31.794 89.783 31.642C89.403 31.49 88.871 31.3253 88.187 31.148C87.3257 30.92 86.6227 30.692 86.078 30.464C85.546 30.2233 85.09 29.856 84.71 29.362C84.33 28.868 84.14 28.2093 84.14 27.386C84.14 26.626 84.33 25.961 84.71 25.391C85.09 24.821 85.622 24.384 86.306 24.08C86.99 23.776 87.7817 23.624 88.681 23.624C89.9603 23.624 91.0053 23.947 91.816 24.593C92.6393 25.2263 93.0953 26.1003 93.184 27.215H90.79C90.752 26.7337 90.524 26.322 90.106 25.98C89.688 25.638 89.137 25.467 88.453 25.467C87.8323 25.467 87.3257 25.6253 86.933 25.942C86.5403 26.2587 86.344 26.7147 86.344 27.31C86.344 27.7153 86.4643 28.051 86.705 28.317C86.9583 28.5703 87.275 28.773 87.655 28.925C88.035 29.077 88.5543 29.2417 89.213 29.419C90.087 29.6597 90.7963 29.9003 91.341 30.141C91.8983 30.3817 92.367 30.7553 92.747 31.262C93.1397 31.756 93.336 32.421 93.336 33.257C93.336 33.9283 93.1523 34.5617 92.785 35.157C92.4303 35.7523 91.9047 36.2337 91.208 36.601C90.524 36.9557 89.7133 37.133 88.776 37.133ZM98.7988 28.298V34.093C98.7988 34.4857 98.8875 34.7707 99.0648 34.948C99.2548 35.1127 99.5715 35.195 100.015 35.195H101.345V37H99.6348C98.6595 37 97.9121 36.772 97.3928 36.316C96.8735 35.86 96.6138 35.119 96.6138 34.093V28.298H95.3788V26.531H96.6138V23.928H98.7988V26.531H101.345V28.298H98.7988ZM108.262 37.171C107.274 37.171 106.381 36.9493 105.583 36.506C104.785 36.05 104.158 35.4167 103.702 34.606C103.246 33.7827 103.018 32.8327 103.018 31.756C103.018 30.692 103.252 29.7483 103.721 28.925C104.19 28.1017 104.829 27.4683 105.64 27.025C106.451 26.5817 107.356 26.36 108.357 26.36C109.358 26.36 110.263 26.5817 111.074 27.025C111.885 27.4683 112.524 28.1017 112.993 28.925C113.462 29.7483 113.696 30.692 113.696 31.756C113.696 32.82 113.455 33.7637 112.974 34.587C112.493 35.4103 111.834 36.05 110.998 36.506C110.175 36.9493 109.263 37.171 108.262 37.171ZM108.262 35.29C108.819 35.29 109.339 35.157 109.82 34.891C110.314 34.625 110.713 34.226 111.017 33.694C111.321 33.162 111.473 32.516 111.473 31.756C111.473 30.996 111.327 30.3563 111.036 29.837C110.745 29.305 110.358 28.906 109.877 28.64C109.396 28.374 108.876 28.241 108.319 28.241C107.762 28.241 107.242 28.374 106.761 28.64C106.292 28.906 105.919 29.305 105.64 29.837C105.361 30.3563 105.222 30.996 105.222 31.756C105.222 32.8833 105.507 33.7573 106.077 34.378C106.66 34.986 107.388 35.29 108.262 35.29ZM118.383 28.051C118.7 27.519 119.118 27.1073 119.637 26.816C120.169 26.512 120.796 26.36 121.518 26.36V28.602H120.967C120.119 28.602 119.473 28.8173 119.029 29.248C118.599 29.6787 118.383 30.426 118.383 31.49V37H116.217V26.531H118.383V28.051ZM133.484 31.509C133.484 31.9017 133.459 32.2563 133.408 32.573H125.409C125.473 33.409 125.783 34.0803 126.34 34.587C126.898 35.0937 127.582 35.347 128.392 35.347C129.558 35.347 130.381 34.8593 130.862 33.884H133.199C132.883 34.8467 132.306 35.6383 131.47 36.259C130.647 36.867 129.621 37.171 128.392 37.171C127.392 37.171 126.492 36.9493 125.694 36.506C124.909 36.05 124.288 35.4167 123.832 34.606C123.389 33.7827 123.167 32.8327 123.167 31.756C123.167 30.6793 123.383 29.7357 123.813 28.925C124.257 28.1017 124.871 27.4683 125.656 27.025C126.454 26.5817 127.366 26.36 128.392 26.36C129.38 26.36 130.261 26.5753 131.033 27.006C131.806 27.4367 132.408 28.0447 132.838 28.83C133.269 29.6027 133.484 30.4957 133.484 31.509ZM131.223 30.825C131.211 30.027 130.926 29.3873 130.368 28.906C129.811 28.4247 129.121 28.184 128.297 28.184C127.55 28.184 126.91 28.4247 126.378 28.906C125.846 29.3747 125.53 30.0143 125.428 30.825H131.223ZM107.231 58L104.191 52.718H102.538V58H100.372V44.795H104.932C105.945 44.795 106.8 44.9723 107.497 45.327C108.206 45.6817 108.732 46.1567 109.074 46.752C109.428 47.3473 109.606 48.0123 109.606 48.747C109.606 49.6083 109.352 50.3937 108.846 51.103C108.352 51.7997 107.585 52.2747 106.547 52.528L109.815 58H107.231ZM102.538 50.989H104.932C105.742 50.989 106.35 50.7863 106.756 50.381C107.174 49.9757 107.383 49.431 107.383 48.747C107.383 48.063 107.18 47.531 106.775 47.151C106.369 46.7583 105.755 46.562 104.932 46.562H102.538V50.989ZM122.352 52.509C122.352 52.9017 122.326 53.2563 122.276 53.573H114.277C114.34 54.409 114.65 55.0803 115.208 55.587C115.765 56.0937 116.449 56.347 117.26 56.347C118.425 56.347 119.248 55.8593 119.73 54.884H122.067C121.75 55.8467 121.174 56.6383 120.338 57.259C119.514 57.867 118.488 58.171 117.26 58.171C116.259 58.171 115.36 57.9493 114.562 57.506C113.776 57.05 113.156 56.4167 112.7 55.606C112.256 54.7827 112.035 53.8327 112.035 52.756C112.035 51.6793 112.25 50.7357 112.681 49.925C113.124 49.1017 113.738 48.4683 114.524 48.025C115.322 47.5817 116.234 47.36 117.26 47.36C118.248 47.36 119.128 47.5753 119.901 48.006C120.673 48.4367 121.275 49.0447 121.706 49.83C122.136 50.6027 122.352 51.4957 122.352 52.509ZM120.091 51.825C120.078 51.027 119.793 50.3873 119.236 49.906C118.678 49.4247 117.988 49.184 117.165 49.184C116.417 49.184 115.778 49.4247 115.246 49.906C114.714 50.3747 114.397 51.0143 114.296 51.825H120.091ZM124.141 52.718C124.141 51.6667 124.356 50.7357 124.787 49.925C125.23 49.1143 125.826 48.4873 126.573 48.044C127.333 47.588 128.169 47.36 129.081 47.36C129.904 47.36 130.62 47.5247 131.228 47.854C131.849 48.1707 132.343 48.5697 132.71 49.051V47.531H134.895V58H132.71V56.442C132.343 56.936 131.842 57.3477 131.209 57.677C130.576 58.0063 129.854 58.171 129.043 58.171C128.144 58.171 127.32 57.943 126.573 57.487C125.826 57.0183 125.23 56.3723 124.787 55.549C124.356 54.713 124.141 53.7693 124.141 52.718ZM132.71 52.756C132.71 52.034 132.558 51.407 132.254 50.875C131.963 50.343 131.576 49.9377 131.095 49.659C130.614 49.3803 130.094 49.241 129.537 49.241C128.98 49.241 128.46 49.3803 127.979 49.659C127.498 49.925 127.105 50.324 126.801 50.856C126.51 51.3753 126.364 51.996 126.364 52.718C126.364 53.44 126.51 54.0733 126.801 54.618C127.105 55.1627 127.498 55.5807 127.979 55.872C128.473 56.1507 128.992 56.29 129.537 56.29C130.094 56.29 130.614 56.1507 131.095 55.872C131.576 55.5933 131.963 55.188 132.254 54.656C132.558 54.1113 132.71 53.478 132.71 52.756ZM137.398 52.756C137.398 51.6793 137.613 50.7357 138.044 49.925C138.487 49.1017 139.095 48.4683 139.868 48.025C140.641 47.5817 141.527 47.36 142.528 47.36C143.795 47.36 144.84 47.664 145.663 48.272C146.499 48.8673 147.063 49.7223 147.354 50.837H145.017C144.827 50.3177 144.523 49.9123 144.105 49.621C143.687 49.3297 143.161 49.184 142.528 49.184C141.641 49.184 140.932 49.5007 140.4 50.134C139.881 50.7547 139.621 51.6287 139.621 52.756C139.621 53.8833 139.881 54.7637 140.4 55.397C140.932 56.0303 141.641 56.347 142.528 56.347C143.782 56.347 144.612 55.796 145.017 54.694H147.354C147.05 55.758 146.48 56.6067 145.644 57.24C144.808 57.8607 143.769 58.171 142.528 58.171C141.527 58.171 140.641 57.9493 139.868 57.506C139.095 57.05 138.487 56.4167 138.044 55.606C137.613 54.7827 137.398 53.8327 137.398 52.756ZM152.42 49.298V55.093C152.42 55.4857 152.508 55.7707 152.686 55.948C152.876 56.1127 153.192 56.195 153.636 56.195H154.966V58H153.256C152.28 58 151.533 57.772 151.014 57.316C150.494 56.86 150.235 56.119 150.235 55.093V49.298H149V47.531H150.235V44.928H152.42V47.531H154.966V49.298H152.42ZM165.303 55.302H159.774L158.824 58H156.563L161.294 44.776H163.802L168.533 58H166.253L165.303 55.302ZM164.695 53.535L162.548 47.398L160.382 53.535H164.695ZM173.136 49.07C173.503 48.5887 174.004 48.1833 174.637 47.854C175.27 47.5247 175.986 47.36 176.784 47.36C177.696 47.36 178.526 47.588 179.273 48.044C180.033 48.4873 180.628 49.1143 181.059 49.925C181.49 50.7357 181.705 51.6667 181.705 52.718C181.705 53.7693 181.49 54.713 181.059 55.549C180.628 56.3723 180.033 57.0183 179.273 57.487C178.526 57.943 177.696 58.171 176.784 58.171C175.986 58.171 175.277 58.0127 174.656 57.696C174.035 57.3667 173.529 56.9613 173.136 56.48V62.978H170.97V47.531H173.136V49.07ZM179.501 52.718C179.501 51.996 179.349 51.3753 179.045 50.856C178.754 50.324 178.361 49.925 177.867 49.659C177.386 49.3803 176.866 49.241 176.309 49.241C175.764 49.241 175.245 49.3803 174.751 49.659C174.27 49.9377 173.877 50.343 173.573 50.875C173.282 51.407 173.136 52.034 173.136 52.756C173.136 53.478 173.282 54.1113 173.573 54.656C173.877 55.188 174.27 55.5933 174.751 55.872C175.245 56.1507 175.764 56.29 176.309 56.29C176.866 56.29 177.386 56.1507 177.867 55.872C178.361 55.5807 178.754 55.1627 179.045 54.618C179.349 54.0733 179.501 53.44 179.501 52.718ZM186.393 49.07C186.76 48.5887 187.261 48.1833 187.894 47.854C188.527 47.5247 189.243 47.36 190.041 47.36C190.953 47.36 191.783 47.588 192.53 48.044C193.29 48.4873 193.885 49.1143 194.316 49.925C194.747 50.7357 194.962 51.6667 194.962 52.718C194.962 53.7693 194.747 54.713 194.316 55.549C193.885 56.3723 193.29 57.0183 192.53 57.487C191.783 57.943 190.953 58.171 190.041 58.171C189.243 58.171 188.534 58.0127 187.913 57.696C187.292 57.3667 186.786 56.9613 186.393 56.48V62.978H184.227V47.531H186.393V49.07ZM192.758 52.718C192.758 51.996 192.606 51.3753 192.302 50.856C192.011 50.324 191.618 49.925 191.124 49.659C190.643 49.3803 190.123 49.241 189.566 49.241C189.021 49.241 188.502 49.3803 188.008 49.659C187.527 49.9377 187.134 50.343 186.83 50.875C186.539 51.407 186.393 52.034 186.393 52.756C186.393 53.478 186.539 54.1113 186.83 54.656C187.134 55.188 187.527 55.5933 188.008 55.872C188.502 56.1507 189.021 56.29 189.566 56.29C190.123 56.29 190.643 56.1507 191.124 55.872C191.618 55.5807 192.011 55.1627 192.302 54.618C192.606 54.0733 192.758 53.44 192.758 52.718Z" fill="#7BAACF"/>
</svg>
