<svg width="224" height="82" viewBox="0 0 224 82" fill="none" xmlns="http://www.w3.org/2000/svg">
<path opacity="0.2" d="M37.4162 0H37.4161C16.7518 0 0 16.7518 0 37.4161V37.4162C0 58.0805 16.7518 74.8323 37.4161 74.8323H37.4162C58.0805 74.8323 74.8323 58.0805 74.8323 37.4162V37.4161C74.8323 16.7518 58.0805 0 37.4162 0Z" fill="white"/>
<path d="M82.6265 56.1238C82.6265 42.3475 71.4587 31.1797 57.6824 31.1797C43.9062 31.1797 32.7383 42.3475 32.7383 56.1238C32.7383 69.9 43.9062 81.0679 57.6824 81.0679C71.4587 81.0679 82.6265 69.9 82.6265 56.1238Z" fill="white"/>
<path d="M88.776 33.133C87.8893 33.133 87.0913 32.981 86.382 32.677C85.6727 32.3603 85.1153 31.917 84.71 31.347C84.3047 30.777 84.102 30.112 84.102 29.352H86.42C86.4707 29.922 86.6923 30.3907 87.085 30.758C87.4903 31.1253 88.054 31.309 88.776 31.309C89.5233 31.309 90.106 31.1317 90.524 30.777C90.942 30.4097 91.151 29.941 91.151 29.371C91.151 28.9277 91.018 28.5667 90.752 28.288C90.4987 28.0093 90.1757 27.794 89.783 27.642C89.403 27.49 88.871 27.3253 88.187 27.148C87.3257 26.92 86.6227 26.692 86.078 26.464C85.546 26.2233 85.09 25.856 84.71 25.362C84.33 24.868 84.14 24.2093 84.14 23.386C84.14 22.626 84.33 21.961 84.71 21.391C85.09 20.821 85.622 20.384 86.306 20.08C86.99 19.776 87.7817 19.624 88.681 19.624C89.9603 19.624 91.0053 19.947 91.816 20.593C92.6393 21.2263 93.0953 22.1003 93.184 23.215H90.79C90.752 22.7337 90.524 22.322 90.106 21.98C89.688 21.638 89.137 21.467 88.453 21.467C87.8323 21.467 87.3257 21.6253 86.933 21.942C86.5403 22.2587 86.344 22.7147 86.344 23.31C86.344 23.7153 86.4643 24.051 86.705 24.317C86.9583 24.5703 87.275 24.773 87.655 24.925C88.035 25.077 88.5543 25.2417 89.213 25.419C90.087 25.6597 90.7963 25.9003 91.341 26.141C91.8983 26.3817 92.367 26.7553 92.747 27.262C93.1397 27.756 93.336 28.421 93.336 29.257C93.336 29.9283 93.1523 30.5617 92.785 31.157C92.4303 31.7523 91.9047 32.2337 91.208 32.601C90.524 32.9557 89.7133 33.133 88.776 33.133ZM98.7988 24.298V30.093C98.7988 30.4857 98.8875 30.7707 99.0648 30.948C99.2548 31.1127 99.5715 31.195 100.015 31.195H101.345V33H99.6348C98.6595 33 97.9121 32.772 97.3928 32.316C96.8735 31.86 96.6138 31.119 96.6138 30.093V24.298H95.3788V22.531H96.6138V19.928H98.7988V22.531H101.345V24.298H98.7988ZM108.262 33.171C107.274 33.171 106.381 32.9493 105.583 32.506C104.785 32.05 104.158 31.4167 103.702 30.606C103.246 29.7827 103.018 28.8327 103.018 27.756C103.018 26.692 103.252 25.7483 103.721 24.925C104.19 24.1017 104.829 23.4683 105.64 23.025C106.451 22.5817 107.356 22.36 108.357 22.36C109.358 22.36 110.263 22.5817 111.074 23.025C111.885 23.4683 112.524 24.1017 112.993 24.925C113.462 25.7483 113.696 26.692 113.696 27.756C113.696 28.82 113.455 29.7637 112.974 30.587C112.493 31.4103 111.834 32.05 110.998 32.506C110.175 32.9493 109.263 33.171 108.262 33.171ZM108.262 31.29C108.819 31.29 109.339 31.157 109.82 30.891C110.314 30.625 110.713 30.226 111.017 29.694C111.321 29.162 111.473 28.516 111.473 27.756C111.473 26.996 111.327 26.3563 111.036 25.837C110.745 25.305 110.358 24.906 109.877 24.64C109.396 24.374 108.876 24.241 108.319 24.241C107.762 24.241 107.242 24.374 106.761 24.64C106.292 24.906 105.919 25.305 105.64 25.837C105.361 26.3563 105.222 26.996 105.222 27.756C105.222 28.8833 105.507 29.7573 106.077 30.378C106.66 30.986 107.388 31.29 108.262 31.29ZM118.383 24.051C118.7 23.519 119.118 23.1073 119.637 22.816C120.169 22.512 120.796 22.36 121.518 22.36V24.602H120.967C120.119 24.602 119.473 24.8173 119.029 25.248C118.599 25.6787 118.383 26.426 118.383 27.49V33H116.217V22.531H118.383V24.051ZM133.484 27.509C133.484 27.9017 133.459 28.2563 133.408 28.573H125.409C125.473 29.409 125.783 30.0803 126.34 30.587C126.898 31.0937 127.582 31.347 128.392 31.347C129.558 31.347 130.381 30.8593 130.862 29.884H133.199C132.883 30.8467 132.306 31.6383 131.47 32.259C130.647 32.867 129.621 33.171 128.392 33.171C127.392 33.171 126.492 32.9493 125.694 32.506C124.909 32.05 124.288 31.4167 123.832 30.606C123.389 29.7827 123.167 28.8327 123.167 27.756C123.167 26.6793 123.383 25.7357 123.813 24.925C124.257 24.1017 124.871 23.4683 125.656 23.025C126.454 22.5817 127.366 22.36 128.392 22.36C129.38 22.36 130.261 22.5753 131.033 23.006C131.806 23.4367 132.408 24.0447 132.838 24.83C133.269 25.6027 133.484 26.4957 133.484 27.509ZM131.223 26.825C131.211 26.027 130.926 25.3873 130.368 24.906C129.811 24.4247 129.121 24.184 128.297 24.184C127.55 24.184 126.91 24.4247 126.378 24.906C125.846 25.3747 125.53 26.0143 125.428 26.825H131.223ZM107.231 54L104.191 48.718H102.538V54H100.372V40.795H104.932C105.945 40.795 106.8 40.9723 107.497 41.327C108.206 41.6817 108.732 42.1567 109.074 42.752C109.428 43.3473 109.606 44.0123 109.606 44.747C109.606 45.6083 109.352 46.3937 108.846 47.103C108.352 47.7997 107.585 48.2747 106.547 48.528L109.815 54H107.231ZM102.538 46.989H104.932C105.742 46.989 106.35 46.7863 106.756 46.381C107.174 45.9757 107.383 45.431 107.383 44.747C107.383 44.063 107.18 43.531 106.775 43.151C106.369 42.7583 105.755 42.562 104.932 42.562H102.538V46.989ZM122.352 48.509C122.352 48.9017 122.326 49.2563 122.276 49.573H114.277C114.34 50.409 114.65 51.0803 115.208 51.587C115.765 52.0937 116.449 52.347 117.26 52.347C118.425 52.347 119.248 51.8593 119.73 50.884H122.067C121.75 51.8467 121.174 52.6383 120.338 53.259C119.514 53.867 118.488 54.171 117.26 54.171C116.259 54.171 115.36 53.9493 114.562 53.506C113.776 53.05 113.156 52.4167 112.7 51.606C112.256 50.7827 112.035 49.8327 112.035 48.756C112.035 47.6793 112.25 46.7357 112.681 45.925C113.124 45.1017 113.738 44.4683 114.524 44.025C115.322 43.5817 116.234 43.36 117.26 43.36C118.248 43.36 119.128 43.5753 119.901 44.006C120.673 44.4367 121.275 45.0447 121.706 45.83C122.136 46.6027 122.352 47.4957 122.352 48.509ZM120.091 47.825C120.078 47.027 119.793 46.3873 119.236 45.906C118.678 45.4247 117.988 45.184 117.165 45.184C116.417 45.184 115.778 45.4247 115.246 45.906C114.714 46.3747 114.397 47.0143 114.296 47.825H120.091ZM124.141 48.718C124.141 47.6667 124.356 46.7357 124.787 45.925C125.23 45.1143 125.826 44.4873 126.573 44.044C127.333 43.588 128.169 43.36 129.081 43.36C129.904 43.36 130.62 43.5247 131.228 43.854C131.849 44.1707 132.343 44.5697 132.71 45.051V43.531H134.895V54H132.71V52.442C132.343 52.936 131.842 53.3477 131.209 53.677C130.576 54.0063 129.854 54.171 129.043 54.171C128.144 54.171 127.32 53.943 126.573 53.487C125.826 53.0183 125.23 52.3723 124.787 51.549C124.356 50.713 124.141 49.7693 124.141 48.718ZM132.71 48.756C132.71 48.034 132.558 47.407 132.254 46.875C131.963 46.343 131.576 45.9377 131.095 45.659C130.614 45.3803 130.094 45.241 129.537 45.241C128.98 45.241 128.46 45.3803 127.979 45.659C127.498 45.925 127.105 46.324 126.801 46.856C126.51 47.3753 126.364 47.996 126.364 48.718C126.364 49.44 126.51 50.0733 126.801 50.618C127.105 51.1627 127.498 51.5807 127.979 51.872C128.473 52.1507 128.992 52.29 129.537 52.29C130.094 52.29 130.614 52.1507 131.095 51.872C131.576 51.5933 131.963 51.188 132.254 50.656C132.558 50.1113 132.71 49.478 132.71 48.756ZM137.398 48.756C137.398 47.6793 137.613 46.7357 138.044 45.925C138.487 45.1017 139.095 44.4683 139.868 44.025C140.641 43.5817 141.527 43.36 142.528 43.36C143.795 43.36 144.84 43.664 145.663 44.272C146.499 44.8673 147.063 45.7223 147.354 46.837H145.017C144.827 46.3177 144.523 45.9123 144.105 45.621C143.687 45.3297 143.161 45.184 142.528 45.184C141.641 45.184 140.932 45.5007 140.4 46.134C139.881 46.7547 139.621 47.6287 139.621 48.756C139.621 49.8833 139.881 50.7637 140.4 51.397C140.932 52.0303 141.641 52.347 142.528 52.347C143.782 52.347 144.612 51.796 145.017 50.694H147.354C147.05 51.758 146.48 52.6067 145.644 53.24C144.808 53.8607 143.769 54.171 142.528 54.171C141.527 54.171 140.641 53.9493 139.868 53.506C139.095 53.05 138.487 52.4167 138.044 51.606C137.613 50.7827 137.398 49.8327 137.398 48.756ZM152.42 45.298V51.093C152.42 51.4857 152.508 51.7707 152.686 51.948C152.876 52.1127 153.192 52.195 153.636 52.195H154.966V54H153.256C152.28 54 151.533 53.772 151.014 53.316C150.494 52.86 150.235 52.119 150.235 51.093V45.298H149V43.531H150.235V40.928H152.42V43.531H154.966V45.298H152.42ZM165.303 51.302H159.774L158.824 54H156.563L161.294 40.776H163.802L168.533 54H166.253L165.303 51.302ZM164.695 49.535L162.548 43.398L160.382 49.535H164.695ZM173.136 45.07C173.503 44.5887 174.004 44.1833 174.637 43.854C175.27 43.5247 175.986 43.36 176.784 43.36C177.696 43.36 178.526 43.588 179.273 44.044C180.033 44.4873 180.628 45.1143 181.059 45.925C181.49 46.7357 181.705 47.6667 181.705 48.718C181.705 49.7693 181.49 50.713 181.059 51.549C180.628 52.3723 180.033 53.0183 179.273 53.487C178.526 53.943 177.696 54.171 176.784 54.171C175.986 54.171 175.277 54.0127 174.656 53.696C174.035 53.3667 173.529 52.9613 173.136 52.48V58.978H170.97V43.531H173.136V45.07ZM179.501 48.718C179.501 47.996 179.349 47.3753 179.045 46.856C178.754 46.324 178.361 45.925 177.867 45.659C177.386 45.3803 176.866 45.241 176.309 45.241C175.764 45.241 175.245 45.3803 174.751 45.659C174.27 45.9377 173.877 46.343 173.573 46.875C173.282 47.407 173.136 48.034 173.136 48.756C173.136 49.478 173.282 50.1113 173.573 50.656C173.877 51.188 174.27 51.5933 174.751 51.872C175.245 52.1507 175.764 52.29 176.309 52.29C176.866 52.29 177.386 52.1507 177.867 51.872C178.361 51.5807 178.754 51.1627 179.045 50.618C179.349 50.0733 179.501 49.44 179.501 48.718ZM186.393 45.07C186.76 44.5887 187.261 44.1833 187.894 43.854C188.527 43.5247 189.243 43.36 190.041 43.36C190.953 43.36 191.783 43.588 192.53 44.044C193.29 44.4873 193.885 45.1143 194.316 45.925C194.747 46.7357 194.962 47.6667 194.962 48.718C194.962 49.7693 194.747 50.713 194.316 51.549C193.885 52.3723 193.29 53.0183 192.53 53.487C191.783 53.943 190.953 54.171 190.041 54.171C189.243 54.171 188.534 54.0127 187.913 53.696C187.292 53.3667 186.786 52.9613 186.393 52.48V58.978H184.227V43.531H186.393V45.07ZM192.758 48.718C192.758 47.996 192.606 47.3753 192.302 46.856C192.011 46.324 191.618 45.925 191.124 45.659C190.643 45.3803 190.123 45.241 189.566 45.241C189.021 45.241 188.502 45.3803 188.008 45.659C187.527 45.9377 187.134 46.343 186.83 46.875C186.539 47.407 186.393 48.034 186.393 48.756C186.393 49.478 186.539 50.1113 186.83 50.656C187.134 51.188 187.527 51.5933 188.008 51.872C188.502 52.1507 189.021 52.29 189.566 52.29C190.123 52.29 190.643 52.1507 191.124 51.872C191.618 51.5807 192.011 51.1627 192.302 50.618C192.606 50.0733 192.758 49.44 192.758 48.718Z" fill="white"/>
</svg>
